<?xml version="1.0" encoding="UTF-8"?>
<!DOCTYPE svg PUBLIC "-//W3C//DTD SVG 1.1//EN" "http://www.w3.org/Graphics/SVG/1.1/DTD/svg11.dtd">
<svg xmlns="http://www.w3.org/2000/svg" version="1.1" width="919px" height="344px" style="shape-rendering:geometricPrecision; text-rendering:geometricPrecision; image-rendering:optimizeQuality; fill-rule:evenodd; clip-rule:evenodd" xmlns:xlink="http://www.w3.org/1999/xlink">
<g><path style="opacity:0.971" fill="#0062da" d="M 349.5,14.5 C 361.547,14.1348 373.547,14.6348 385.5,16C 386.134,18.0745 386.468,20.2412 386.5,22.5C 385.712,30.8292 385.046,39.1625 384.5,47.5C 362.099,40.8937 352.765,49.2271 356.5,72.5C 366.5,72.5 376.5,72.5 386.5,72.5C 386.5,82.8333 386.5,93.1667 386.5,103.5C 376.5,103.5 366.5,103.5 356.5,103.5C 356.5,135.5 356.5,167.5 356.5,199.5C 341.833,199.5 327.167,199.5 312.5,199.5C 312.5,167.5 312.5,135.5 312.5,103.5C 304.5,103.5 296.5,103.5 288.5,103.5C 288.5,93.1667 288.5,82.8333 288.5,72.5C 296.833,72.5 305.167,72.5 313.5,72.5C 312.124,58.0882 314.624,44.4215 321,31.5C 328.162,21.8388 337.662,16.1721 349.5,14.5 Z"/></g>
<g><path style="opacity:0.95" fill="#0062da" d="M 406.5,16.5 C 421.167,16.5 435.833,16.5 450.5,16.5C 450.5,77.5 450.5,138.5 450.5,199.5C 435.833,199.5 421.167,199.5 406.5,199.5C 406.5,138.5 406.5,77.5 406.5,16.5 Z"/></g>
<g><path style="opacity:0.956" fill="#0062da" d="M 674.5,16.5 C 689.167,16.5 703.833,16.5 718.5,16.5C 718.333,52.1682 718.5,87.8349 719,123.5C 729.774,106.395 740.941,89.5618 752.5,73C 768.074,72.8251 783.574,72.3251 799,71.5C 799.667,72.5 799.667,73.5 799,74.5C 784.974,93.0258 771.141,111.692 757.5,130.5C 772.833,153.167 788.167,175.833 803.5,198.5C 786.176,199.666 768.843,199.833 751.5,199C 740.794,179.087 729.96,159.253 719,139.5C 718.5,159.497 718.333,179.497 718.5,199.5C 703.833,199.5 689.167,199.5 674.5,199.5C 674.5,138.5 674.5,77.5 674.5,16.5 Z"/></g>
<g><path style="opacity:0.925" fill="#0063db" d="M 484.5,19.5 C 499.167,19.5 513.833,19.5 528.5,19.5C 528.5,30.5 528.5,41.5 528.5,52.5C 513.833,52.5 499.167,52.5 484.5,52.5C 484.5,41.5 484.5,30.5 484.5,19.5 Z"/></g>
<g><path style="opacity:0.979" fill="#0063db" d="M 102.5,59.5 C 104.147,61.3264 106.147,62.6597 108.5,63.5C 111.167,66.8333 114.167,69.8333 117.5,72.5C 117.738,74.4044 118.738,75.7377 120.5,76.5C 120.427,78.0269 121.094,79.0269 122.5,79.5C 133.167,100.833 133.167,122.167 122.5,143.5C 120.453,145.55 118.786,147.883 117.5,150.5C 114.167,153.167 111.167,156.167 108.5,159.5C 106.147,160.34 104.147,161.674 102.5,163.5C 88.4625,171.108 73.4625,173.608 57.5,171C 51.373,169.125 45.373,166.958 39.5,164.5C 37.8525,162.674 35.8525,161.34 33.5,160.5C 30.1667,156.5 26.5,152.833 22.5,149.5C 11.2812,134.282 7.44784,117.282 11,98.5C 15.3556,81.439 24.8556,68.1057 39.5,58.5C 53.071,51.8353 67.4044,49.6686 82.5,52C 89.5368,53.6924 96.2035,56.1924 102.5,59.5 Z"/></g>
<g><path style="opacity:0.979" fill="#fe0083" d="M 239.5,58.5 C 241.147,60.3264 243.147,61.6597 245.5,62.5C 250.195,67.5261 254.861,72.5261 259.5,77.5C 260.584,80.0041 261.917,82.3374 263.5,84.5C 270.167,102.5 270.167,120.5 263.5,138.5C 261.412,140.336 260.079,142.669 259.5,145.5C 254.861,150.474 250.195,155.474 245.5,160.5C 243.147,161.34 241.147,162.674 239.5,164.5C 225.929,171.165 211.596,173.331 196.5,171C 189.463,169.308 182.796,166.808 176.5,163.5C 174.45,161.453 172.117,159.786 169.5,158.5C 164.106,153.346 159.439,147.679 155.5,141.5C 154.07,137.646 152.403,133.979 150.5,130.5C 147.833,117.833 147.833,105.167 150.5,92.5C 152.403,89.0211 154.07,85.3544 155.5,81.5C 159.439,75.3208 164.106,69.6542 169.5,64.5C 172.117,63.2141 174.45,61.5475 176.5,59.5C 190.538,51.8922 205.538,49.3922 221.5,52C 227.627,53.8751 233.627,56.0418 239.5,58.5 Z"/></g>
<g><path style="opacity:0.004" fill="#0062dc" d="M 48.5,52.5 C 49.8333,53.1667 49.8333,53.1667 48.5,52.5 Z"/></g>
<g><path style="opacity:0.004" fill="#0062dc" d="M 90.5,52.5 C 91.8333,53.1667 91.8333,53.1667 90.5,52.5 Z"/></g>
<g><path style="opacity:0.004" fill="#fe0083" d="M 187.5,52.5 C 188.833,53.1667 188.833,53.1667 187.5,52.5 Z"/></g>
<g><path style="opacity:0.004" fill="#fe0083" d="M 229.5,52.5 C 230.833,53.1667 230.833,53.1667 229.5,52.5 Z"/></g>
<g><path style="opacity:0.004" fill="#0062dc" d="M 46.5,53.5 C 47.8333,54.1667 47.8333,54.1667 46.5,53.5 Z"/></g>
<g><path style="opacity:0.004" fill="#fe0083" d="M 231.5,53.5 C 232.833,54.1667 232.833,54.1667 231.5,53.5 Z"/></g>
<g><path style="opacity:0.004" fill="#0062dc" d="M 39.5,58.5 C 38.8333,57.1667 38.8333,57.1667 39.5,58.5 Z"/></g>
<g><path style="opacity:0.004" fill="#fe0083" d="M 176.5,57.5 C 177.833,58.1667 177.833,58.1667 176.5,57.5 Z"/></g>
<g><path style="opacity:0.004" fill="#fe0083" d="M 239.5,57.5 C 240.833,58.1667 240.833,58.1667 239.5,57.5 Z"/></g>
<g><path style="opacity:0.004" fill="#0062dc" d="M 102.5,58.5 C 103.833,59.1667 103.833,59.1667 102.5,58.5 Z"/></g>
<g><path style="opacity:0.004" fill="#fe0083" d="M 176.5,58.5 C 176.5,58.8333 176.5,59.1667 176.5,59.5C 175.83,59.0187 175.83,58.6853 176.5,58.5 Z"/></g>
<g><path style="opacity:0.004" fill="#0062dc" d="M 108.5,62.5 C 107.833,61.1667 107.833,61.1667 108.5,62.5 Z"/></g>
<g><path style="opacity:0.004" fill="#fe0083" d="M 245.5,61.5 C 246.833,62.1667 246.833,62.1667 245.5,61.5 Z"/></g>
<g><path style="opacity:0.004" fill="#0062dc" d="M 108.5,62.5 C 109.833,63.1667 109.833,63.1667 108.5,62.5 Z"/></g>
<g><path style="opacity:0.004" fill="#fe0083" d="M 169.5,62.5 C 170.833,63.1667 170.833,63.1667 169.5,62.5 Z"/></g>
<g><path style="opacity:0.004" fill="#fe0083" d="M 169.5,63.5 C 169.5,63.8333 169.5,64.1667 169.5,64.5C 168.83,64.0187 168.83,63.6853 169.5,63.5 Z"/></g>
<g><path style="opacity:0.004" fill="#0062dc" d="M 26.5,66.5 C 27.8333,67.1667 27.8333,67.1667 26.5,66.5 Z"/></g>
<g><path style="opacity:0.004" fill="#0062dc" d="M 26.5,67.5 C 25.8333,68.1667 25.8333,68.1667 26.5,67.5 Z"/></g>
<g><path style="opacity:0.991" fill="#0162da" d="M 860.5,199.5 C 846.677,198.504 832.677,198.171 818.5,198.5C 818.832,156.33 818.499,114.33 817.5,72.5C 830.656,71.5044 843.99,71.1711 857.5,71.5C 857.334,78.175 857.5,84.8417 858,91.5C 868.811,71.6054 885.311,64.6054 907.5,70.5C 907.833,71.8333 908.167,73.1667 908.5,74.5C 907.482,85.8138 906.815,97.1472 906.5,108.5C 881.7,102.305 866.867,111.638 862,136.5C 861.832,157.671 861.332,178.671 860.5,199.5 Z"/></g>
<g><path style="opacity:0.965" fill="#0062da" d="M 610.5,69.5 C 619.173,69.3336 627.84,69.5002 636.5,70C 643.535,70.7897 650.202,72.7897 656.5,76C 657.001,87.1764 656.167,98.343 654,109.5C 639.386,100.924 624.552,100.424 609.5,108C 597.646,119.312 594.146,132.812 599,148.5C 603.725,158.629 611.558,165.129 622.5,168C 634.605,169.585 646.272,168.085 657.5,163.5C 658.584,174.504 658.584,185.504 657.5,196.5C 651.662,198.626 645.662,200.126 639.5,201C 614.167,205.334 591.501,199.667 571.5,184C 551.887,161.845 547.054,136.678 557,108.5C 567.988,86.0912 585.821,73.0912 610.5,69.5 Z"/></g>
<g><path style="opacity:0.004" fill="#0062dc" d="M 118.5,72.5 C 117.833,71.1667 117.833,71.1667 118.5,72.5 Z"/></g>
<g><path style="opacity:0.004" fill="#0062dc" d="M 118.5,72.5 C 119.833,73.1667 119.833,73.1667 118.5,72.5 Z"/></g>
<g><path style="opacity:0.951" fill="#0063db" d="M 484.5,72.5 C 499.167,72.5 513.833,72.5 528.5,72.5C 528.5,114.833 528.5,157.167 528.5,199.5C 513.833,199.5 499.167,199.5 484.5,199.5C 484.5,157.167 484.5,114.833 484.5,72.5 Z"/></g>
<g><path style="opacity:0.584" fill="#2653cd" d="M 817.5,72.5 C 818.499,114.33 818.832,156.33 818.5,198.5C 832.677,198.171 846.677,198.504 860.5,199.5C 846.167,199.5 831.833,199.5 817.5,199.5C 817.5,157.167 817.5,114.833 817.5,72.5 Z"/></g>
<g><path style="opacity:0.004" fill="#0062dc" d="M 120.5,75.5 C 121.833,76.1667 121.833,76.1667 120.5,75.5 Z"/></g>
<g><path style="opacity:0.004" fill="#fe0083" d="M 259.5,76.5 C 260.833,77.1667 260.833,77.1667 259.5,76.5 Z"/></g>
<g><path style="opacity:0.004" fill="#0062dc" d="M 122.5,78.5 C 123.833,79.1667 123.833,79.1667 122.5,78.5 Z"/></g>
<g><path style="opacity:0.004" fill="#0062dc" d="M 16.5,79.5 C 17.8333,80.1667 17.8333,80.1667 16.5,79.5 Z"/></g>
<g><path style="opacity:0.004" fill="#fe0083" d="M 155.5,81.5 C 154.833,80.1667 154.833,80.1667 155.5,81.5 Z"/></g>
<g><path style="opacity:0.004" fill="#fe0083" d="M 154.5,81.5 C 153.833,82.1667 153.833,82.1667 154.5,81.5 Z"/></g>
<g><path style="opacity:0.004" fill="#fe0083" d="M 263.5,83.5 C 264.833,84.1667 264.833,84.1667 263.5,83.5 Z"/></g>
<g><path style="opacity:0.004" fill="#fe0083" d="M 150.5,92.5 C 149.833,91.1667 149.833,91.1667 150.5,92.5 Z"/></g>
<g><path style="opacity:0.004" fill="#fe0083" d="M 148.5,93.5 C 149.833,94.1667 149.833,94.1667 148.5,93.5 Z"/></g>
<g><path style="opacity:0.004" fill="#0062dc" d="M 130.5,98.5 C 131.833,99.1667 131.833,99.1667 130.5,98.5 Z"/></g>
<g><path style="opacity:0.004" fill="#0062dc" d="M 131.5,103.5 C 132.525,103.897 132.692,104.563 132,105.5C 131.536,104.906 131.369,104.239 131.5,103.5 Z"/></g>
<g><path style="opacity:0.004" fill="#0062dc" d="M 131.5,117.5 C 132.525,117.897 132.692,118.563 132,119.5C 131.536,118.906 131.369,118.239 131.5,117.5 Z"/></g>
<g><path style="opacity:0.004" fill="#0062dc" d="M 130.5,123.5 C 131.833,124.167 131.833,124.167 130.5,123.5 Z"/></g>
<g><path style="opacity:0.004" fill="#fe0083" d="M 148.5,128.5 C 149.833,129.167 149.833,129.167 148.5,128.5 Z"/></g>
<g><path style="opacity:0.004" fill="#fe0083" d="M 150.5,130.5 C 149.833,131.167 149.833,131.167 150.5,130.5 Z"/></g>
<g><path style="opacity:0.004" fill="#fe0083" d="M 263.5,138.5 C 264.833,139.167 264.833,139.167 263.5,138.5 Z"/></g>
<g><path style="opacity:0.004" fill="#fe0083" d="M 154.5,141.5 C 153.833,140.167 153.833,140.167 154.5,141.5 Z"/></g>
<g><path style="opacity:0.004" fill="#fe0083" d="M 154.5,141.5 C 154.833,141.5 155.167,141.5 155.5,141.5C 155.315,142.17 154.981,142.17 154.5,141.5 Z"/></g>
<g><path style="opacity:0.004" fill="#0062dc" d="M 16.5,142.5 C 17.8333,143.167 17.8333,143.167 16.5,142.5 Z"/></g>
<g><path style="opacity:0.004" fill="#0062dc" d="M 122.5,143.5 C 123.833,144.167 123.833,144.167 122.5,143.5 Z"/></g>
<g><path style="opacity:0.004" fill="#fe0083" d="M 259.5,145.5 C 260.833,146.167 260.833,146.167 259.5,145.5 Z"/></g>
<g><path style="opacity:0.004" fill="#0062dc" d="M 22.5,149.5 C 21.8333,150.167 21.8333,150.167 22.5,149.5 Z"/></g>
<g><path style="opacity:0.004" fill="#0062dc" d="M 118.5,149.5 C 119.833,150.167 119.833,150.167 118.5,149.5 Z"/></g>
<g><path style="opacity:0.004" fill="#0062dc" d="M 117.5,150.5 C 117.833,150.5 118.167,150.5 118.5,150.5C 118.315,151.17 117.981,151.17 117.5,150.5 Z"/></g>
<g><path style="opacity:0.004" fill="#0062dc" d="M 26.5,155.5 C 25.8333,154.167 25.8333,154.167 26.5,155.5 Z"/></g>
<g><path style="opacity:0.004" fill="#0062dc" d="M 26.5,155.5 C 27.8333,156.167 27.8333,156.167 26.5,155.5 Z"/></g>
<g><path style="opacity:0.004" fill="#fe0083" d="M 169.5,158.5 C 169.5,158.833 169.5,159.167 169.5,159.5C 168.83,159.019 168.83,158.685 169.5,158.5 Z"/></g>
<g><path style="opacity:0.004" fill="#0062dc" d="M 108.5,159.5 C 109.833,160.167 109.833,160.167 108.5,159.5 Z"/></g>
<g><path style="opacity:0.004" fill="#fe0083" d="M 169.5,159.5 C 170.833,160.167 170.833,160.167 169.5,159.5 Z"/></g>
<g><path style="opacity:0.004" fill="#0062dc" d="M 33.5,160.5 C 32.8333,161.167 32.8333,161.167 33.5,160.5 Z"/></g>
<g><path style="opacity:0.004" fill="#0062dc" d="M 108.5,160.5 C 107.833,161.167 107.833,161.167 108.5,160.5 Z"/></g>
<g><path style="opacity:0.004" fill="#fe0083" d="M 245.5,160.5 C 246.833,161.167 246.833,161.167 245.5,160.5 Z"/></g>
<g><path style="opacity:0.004" fill="#0062dc" d="M 102.5,163.5 C 103.833,164.167 103.833,164.167 102.5,163.5 Z"/></g>
<g><path style="opacity:0.004" fill="#fe0083" d="M 176.5,163.5 C 176.5,163.833 176.5,164.167 176.5,164.5C 175.83,164.019 175.83,163.685 176.5,163.5 Z"/></g>
<g><path style="opacity:0.004" fill="#0062dc" d="M 39.5,164.5 C 38.8333,165.167 38.8333,165.167 39.5,164.5 Z"/></g>
<g><path style="opacity:0.004" fill="#fe0083" d="M 176.5,164.5 C 177.833,165.167 177.833,165.167 176.5,164.5 Z"/></g>
<g><path style="opacity:0.004" fill="#fe0083" d="M 239.5,164.5 C 240.833,165.167 240.833,165.167 239.5,164.5 Z"/></g>
<g><path style="opacity:0.004" fill="#0062dc" d="M 46.5,168.5 C 47.8333,169.167 47.8333,169.167 46.5,168.5 Z"/></g>
<g><path style="opacity:0.004" fill="#fe0083" d="M 231.5,168.5 C 232.833,169.167 232.833,169.167 231.5,168.5 Z"/></g>
<g><path style="opacity:0.004" fill="#0062dc" d="M 48.5,169.5 C 49.8333,170.167 49.8333,170.167 48.5,169.5 Z"/></g>
<g><path style="opacity:0.004" fill="#0062dc" d="M 90.5,169.5 C 91.8333,170.167 91.8333,170.167 90.5,169.5 Z"/></g>
<g><path style="opacity:0.004" fill="#fe0083" d="M 187.5,169.5 C 188.833,170.167 188.833,170.167 187.5,169.5 Z"/></g>
<g><path style="opacity:0.987" fill="#ff0083" d="M 80.5,220.5 C 103.833,220.5 127.167,220.5 150.5,220.5C 150.5,225.833 150.5,231.167 150.5,236.5C 133.167,236.5 115.833,236.5 98.5,236.5C 98.5,243.833 98.5,251.167 98.5,258.5C 111.5,258.5 124.5,258.5 137.5,258.5C 137.5,263.833 137.5,269.167 137.5,274.5C 124.5,274.5 111.5,274.5 98.5,274.5C 98.5,284.833 98.5,295.167 98.5,305.5C 115.833,305.5 133.167,305.5 150.5,305.5C 150.5,310.833 150.5,316.167 150.5,321.5C 127.167,321.5 103.833,321.5 80.5,321.5C 80.5,287.833 80.5,254.167 80.5,220.5 Z"/></g>
<g><path style="opacity:0.979" fill="#ff0083" d="M 163.5,220.5 C 170.532,220.17 177.532,220.503 184.5,221.5C 192.14,232.307 199.974,242.974 208,253.5C 215.446,242.387 223.279,231.554 231.5,221C 238.5,220.333 245.5,220.333 252.5,221C 240.765,236.398 229.432,252.064 218.5,268C 230.764,285.935 243.431,303.601 256.5,321C 249.5,321.667 242.5,321.667 235.5,321C 226.328,308.335 216.994,295.835 207.5,283.5C 198.255,295.656 189.255,307.989 180.5,320.5C 173.5,321.833 166.5,321.833 159.5,320.5C 172.043,303.128 184.376,285.628 196.5,268C 185.269,252.279 174.269,236.446 163.5,220.5 Z"/></g>
<g><path style="opacity:0.986" fill="#ff0083" d="M 270.5,220.5 C 290.221,220.049 309.888,220.549 329.5,222C 346.621,230.081 352.454,243.248 347,261.5C 341.775,272.051 333.275,277.885 321.5,279C 310.505,279.5 299.505,279.667 288.5,279.5C 288.5,293.833 288.5,308.167 288.5,322.5C 282.575,322.808 276.741,322.475 271,321.5C 270.5,287.835 270.333,254.168 270.5,220.5 Z M 288.5,236.5 C 300.229,236.088 311.896,236.588 323.5,238C 331.375,242.117 333.542,248.284 330,256.5C 328.039,259.135 325.539,260.969 322.5,262C 311.172,262.5 299.838,262.667 288.5,262.5C 288.5,253.833 288.5,245.167 288.5,236.5 Z"/></g>
<g><path style="opacity:0.992" fill="#ff0084" d="M 360.5,220.5 C 366.167,220.5 371.833,220.5 377.5,220.5C 377.5,248.833 377.5,277.167 377.5,305.5C 394.833,305.5 412.167,305.5 429.5,305.5C 429.5,311.167 429.5,316.833 429.5,322.5C 406.5,322.5 383.5,322.5 360.5,322.5C 360.5,288.5 360.5,254.5 360.5,220.5 Z"/></g>
<g><path style="opacity:0.973" fill="#ff0083" d="M 479.5,220.5 C 507.081,217.695 526.581,228.695 538,253.5C 545.984,284.023 535.817,305.856 507.5,319C 480.827,326.556 459.661,319.056 444,296.5C 431.85,269.901 437.017,247.401 459.5,229C 465.889,225.3 472.556,222.466 479.5,220.5 Z M 483.5,236.5 C 510.12,236.619 522.953,249.952 522,276.5C 517.507,297.99 504.34,307.49 482.5,305C 465.788,299.94 456.788,288.606 455.5,271C 457.09,252.935 466.424,241.435 483.5,236.5 Z"/></g>
<g><path style="opacity:0.982" fill="#ff0083" d="M 554.5,220.5 C 573.17,220.333 591.836,220.5 610.5,221C 624.802,225.311 632.469,234.978 633.5,250C 632.969,263.732 626.302,273.066 613.5,278C 621.96,292.418 630.293,306.918 638.5,321.5C 632.193,322.664 625.859,322.831 619.5,322C 610.915,308.165 602.582,294.165 594.5,280C 587.174,279.5 579.841,279.334 572.5,279.5C 572.5,293.833 572.5,308.167 572.5,322.5C 566.575,322.808 560.741,322.475 555,321.5C 554.5,287.835 554.333,254.168 554.5,220.5 Z M 572.5,236.5 C 584.229,236.088 595.896,236.588 607.5,238C 615.371,242.146 617.537,248.312 614,256.5C 612.039,259.135 609.539,260.969 606.5,262C 595.172,262.5 583.838,262.667 572.5,262.5C 572.5,253.833 572.5,245.167 572.5,236.5 Z"/></g>
<g><path style="opacity:0.972" fill="#ff0084" d="M 647.5,220.5 C 670.833,220.5 694.167,220.5 717.5,220.5C 717.5,225.833 717.5,231.167 717.5,236.5C 700.167,236.5 682.833,236.5 665.5,236.5C 665.5,243.833 665.5,251.167 665.5,258.5C 678.5,258.5 691.5,258.5 704.5,258.5C 704.5,263.833 704.5,269.167 704.5,274.5C 691.5,274.5 678.5,274.5 665.5,274.5C 665.5,284.833 665.5,295.167 665.5,305.5C 682.833,305.5 700.167,305.5 717.5,305.5C 717.5,310.833 717.5,316.167 717.5,321.5C 694.167,321.5 670.833,321.5 647.5,321.5C 647.5,287.833 647.5,254.167 647.5,220.5 Z"/></g>
<g><path style="opacity:0.984" fill="#ff0083" d="M 729.5,220.5 C 747.836,220.333 766.17,220.5 784.5,221C 796.658,223.824 804.158,231.324 807,243.5C 809.398,260.087 802.898,271.587 787.5,278C 796.763,292.365 805.097,307.198 812.5,322.5C 806.158,322.666 799.825,322.5 793.5,322C 785.418,307.835 777.085,293.835 768.5,280C 761.174,279.5 753.841,279.334 746.5,279.5C 746.5,293.833 746.5,308.167 746.5,322.5C 740.833,322.5 735.167,322.5 729.5,322.5C 729.5,288.5 729.5,254.5 729.5,220.5 Z M 746.5,236.5 C 758.229,236.088 769.896,236.588 781.5,238C 790.433,242.898 792.267,249.732 787,258.5C 785.167,259.667 783.333,260.833 781.5,262C 769.838,262.5 758.171,262.667 746.5,262.5C 746.5,253.833 746.5,245.167 746.5,236.5 Z"/></g>
</svg>
