<?xml version="1.0" encoding="UTF-8"?>
<!DOCTYPE svg PUBLIC "-//W3C//DTD SVG 1.1//EN" "http://www.w3.org/Graphics/SVG/1.1/DTD/svg11.dtd">
<svg xmlns="http://www.w3.org/2000/svg" version="1.1" width="482px" height="482px" style="shape-rendering:geometricPrecision; text-rendering:geometricPrecision; image-rendering:optimizeQuality; fill-rule:evenodd; clip-rule:evenodd" xmlns:xlink="http://www.w3.org/1999/xlink">
<g><path style="opacity:0.921" fill="#0062da" d="M 178.5,147.5 C 185.543,147.28 192.543,147.614 199.5,148.5C 198.725,153.797 198.392,159.13 198.5,164.5C 188.055,161.041 183.389,164.708 184.5,175.5C 189.167,175.5 193.833,175.5 198.5,175.5C 198.5,181.167 198.5,186.833 198.5,192.5C 193.489,192.334 188.489,192.501 183.5,193C 184.491,208.422 184.824,223.922 184.5,239.5C 176.833,239.5 169.167,239.5 161.5,239.5C 161.5,223.833 161.5,208.167 161.5,192.5C 157.5,192.5 153.5,192.5 149.5,192.5C 149.334,187.156 149.501,181.823 150,176.5C 154,175.167 158,175.167 162,176.5C 161.497,168.638 163.164,161.305 167,154.5C 170.514,151.5 174.347,149.167 178.5,147.5 Z"/></g>
<g><path style="opacity:0.931" fill="#0062db" d="M 208.5,148.5 C 215.833,148.5 223.167,148.5 230.5,148.5C 230.5,178.833 230.5,209.167 230.5,239.5C 223.167,239.5 215.833,239.5 208.5,239.5C 208.5,209.167 208.5,178.833 208.5,148.5 Z"/></g>
<g><path style="opacity:0.921" fill="#0062db" d="M 340.5,148.5 C 347.833,148.5 355.167,148.5 362.5,148.5C 362.333,165.837 362.5,183.17 363,200.5C 368.305,192.363 373.805,184.363 379.5,176.5C 387.472,175.198 395.472,175.198 403.5,176.5C 396.255,185.99 389.255,195.656 382.5,205.5C 390.081,216.328 397.415,227.328 404.5,238.5C 395.853,239.665 387.186,239.832 378.5,239C 373.206,229.58 368.04,220.08 363,210.5C 362.5,220.161 362.334,229.828 362.5,239.5C 355.167,239.5 347.833,239.5 340.5,239.5C 340.5,209.167 340.5,178.833 340.5,148.5 Z"/></g>
<g><path style="opacity:0.837" fill="#0063db" d="M 246.5,150.5 C 254.167,150.5 261.833,150.5 269.5,150.5C 269.5,156.167 269.5,161.833 269.5,167.5C 261.833,167.5 254.167,167.5 246.5,167.5C 246.5,161.833 246.5,156.167 246.5,150.5 Z"/></g>
<g><path style="opacity:0.953" fill="#0062db" d="M 36.5,165.5 C 61.4823,165.314 73.3156,177.648 72,202.5C 69.3458,213.82 62.5125,221.32 51.5,225C 34.0406,228.743 21.5406,222.576 14,206.5C 9.53239,186.092 17.0324,172.425 36.5,165.5 Z"/></g>
<g><path style="opacity:0.952" fill="#fe0083" d="M 105.5,165.5 C 126.299,164.967 138.299,174.967 141.5,195.5C 138.293,218.425 125.293,228.258 102.5,225C 83.7339,216.967 77.2339,203.133 83,183.5C 87.991,174.267 95.491,168.267 105.5,165.5 Z"/></g>
<g><path style="opacity:0.919" fill="#0062da" d="M 309.5,174.5 C 313.846,174.334 318.179,174.501 322.5,175C 326.556,175.351 330.223,176.685 333.5,179C 332.728,184.462 331.895,189.962 331,195.5C 322.069,189.684 313.736,190.351 306,197.5C 299.836,216.342 306.67,224.842 326.5,223C 328.762,222.358 330.929,221.525 333,220.5C 333.499,226.491 333.666,232.491 333.5,238.5C 323.211,240.898 312.877,241.064 302.5,239C 284.516,231.874 277.349,218.707 281,199.5C 285.354,185.248 294.854,176.914 309.5,174.5 Z"/></g>
<g><path style="opacity:0.986" fill="#0362da" d="M 443.5,174.5 C 447.514,174.334 451.514,174.501 455.5,175C 456,175.5 456.5,176 457,176.5C 456.591,182.414 456.425,188.414 456.5,194.5C 443.816,191.244 436.316,195.91 434,208.5C 433.5,218.828 433.334,229.161 433.5,239.5C 426.167,239.5 418.833,239.5 411.5,239.5C 411.5,218.167 411.5,196.833 411.5,175.5C 418.167,175.5 424.833,175.5 431.5,175.5C 431.335,178.518 431.502,181.518 432,184.5C 434.818,179.839 438.651,176.505 443.5,174.5 Z"/></g>
<g><path style="opacity:0.878" fill="#0063db" d="M 247.5,175.5 C 254.755,175.187 261.921,175.52 269,176.5C 269.5,197.497 269.667,218.497 269.5,239.5C 261.833,239.5 254.167,239.5 246.5,239.5C 246.178,218.091 246.512,196.758 247.5,175.5 Z"/></g>
<g><path style="opacity:0.904" fill="#ff0083" d="M 46.5,249.5 C 58.5,249.5 70.5,249.5 82.5,249.5C 82.5,252.5 82.5,255.5 82.5,258.5C 73.8333,258.5 65.1667,258.5 56.5,258.5C 56.5,261.5 56.5,264.5 56.5,267.5C 63.1667,267.5 69.8333,267.5 76.5,267.5C 76.7839,270.777 76.4505,273.943 75.5,277C 69.2511,277.809 63.0844,277.642 57,276.5C 56.5007,281.489 56.3341,286.489 56.5,291.5C 65.1667,291.5 73.8333,291.5 82.5,291.5C 82.5,294.5 82.5,297.5 82.5,300.5C 70.5,300.5 58.5,300.5 46.5,300.5C 46.5,283.5 46.5,266.5 46.5,249.5 Z"/></g>
<g><path style="opacity:0.908" fill="#ff0083" d="M 87.5,250.5 C 91.3112,249.355 95.3112,249.188 99.5,250C 103.006,254.999 106.673,259.833 110.5,264.5C 114.359,259.809 118.025,254.975 121.5,250C 125.211,249.175 128.878,249.341 132.5,250.5C 127.038,257.929 121.705,265.429 116.5,273C 122.37,281.903 128.37,290.736 134.5,299.5C 130.833,300.833 127.167,300.833 123.5,299.5C 119.192,293.359 114.692,287.359 110,281.5C 105.622,287.755 101.122,293.922 96.5,300C 92.8333,300.667 89.1667,300.667 85.5,300C 91.6394,291.027 97.9728,282.194 104.5,273.5C 99.1629,265.51 93.4962,257.843 87.5,250.5 Z"/></g>
<g><path style="opacity:0.942" fill="#ff0083" d="M 140.5,249.5 C 150.506,249.334 160.506,249.5 170.5,250C 181.373,256.145 183.373,264.478 176.5,275C 173.874,277.146 170.874,278.479 167.5,279C 161.843,279.499 156.176,279.666 150.5,279.5C 150.5,286.5 150.5,293.5 150.5,300.5C 147.167,300.5 143.833,300.5 140.5,300.5C 140.5,283.5 140.5,266.5 140.5,249.5 Z M 150.5,258.5 C 156.176,258.334 161.843,258.501 167.5,259C 173.064,263.593 172.397,267.259 165.5,270C 160.511,270.499 155.511,270.666 150.5,270.5C 150.5,266.5 150.5,262.5 150.5,258.5 Z"/></g>
<g><path style="opacity:0.893" fill="#ff0084" d="M 185.5,249.5 C 188.5,249.5 191.5,249.5 194.5,249.5C 194.5,263.5 194.5,277.5 194.5,291.5C 203.167,291.5 211.833,291.5 220.5,291.5C 220.5,294.5 220.5,297.5 220.5,300.5C 208.833,300.5 197.167,300.5 185.5,300.5C 185.5,283.5 185.5,266.5 185.5,249.5 Z"/></g>
<g><path style="opacity:0.91" fill="#ff0083" d="M 242.5,249.5 C 266.772,248.267 277.272,259.6 274,283.5C 267.073,297.703 255.906,302.869 240.5,299C 224.293,290.712 219.793,278.212 227,261.5C 231.02,255.919 236.186,251.919 242.5,249.5 Z M 244.5,258.5 C 260.835,257.84 267.335,265.507 264,281.5C 259.401,290.592 252.235,293.425 242.5,290C 232.915,282.861 231.082,274.028 237,263.5C 239.426,261.548 241.926,259.881 244.5,258.5 Z"/></g>
<g><path style="opacity:0.933" fill="#ff0083" d="M 281.5,249.5 C 291.172,249.334 300.839,249.5 310.5,250C 319.423,253.681 322.59,260.181 320,269.5C 318.363,273.637 315.53,276.637 311.5,278.5C 315.753,285.337 319.753,292.337 323.5,299.5C 320.216,300.657 316.882,300.824 313.5,300C 309.248,293.499 305.248,286.832 301.5,280C 298.183,279.502 294.85,279.335 291.5,279.5C 291.5,286.5 291.5,293.5 291.5,300.5C 288.167,300.5 284.833,300.5 281.5,300.5C 281.5,283.5 281.5,266.5 281.5,249.5 Z M 291.5,258.5 C 297.176,258.334 302.843,258.501 308.5,259C 311.835,261.679 312.335,264.845 310,268.5C 308.933,269.191 307.766,269.691 306.5,270C 301.511,270.499 296.511,270.666 291.5,270.5C 291.5,266.5 291.5,262.5 291.5,258.5 Z"/></g>
<g><path style="opacity:0.877" fill="#ff0083" d="M 327.5,249.5 C 339.167,249.5 350.833,249.5 362.5,249.5C 362.5,252.5 362.5,255.5 362.5,258.5C 354.167,258.5 345.833,258.5 337.5,258.5C 337.5,261.5 337.5,264.5 337.5,267.5C 343.833,267.5 350.167,267.5 356.5,267.5C 356.784,270.777 356.451,273.943 355.5,277C 349.584,277.807 343.75,277.641 338,276.5C 337.501,281.489 337.334,286.489 337.5,291.5C 345.833,291.5 354.167,291.5 362.5,291.5C 362.5,294.5 362.5,297.5 362.5,300.5C 350.833,300.5 339.167,300.5 327.5,300.5C 327.5,283.5 327.5,266.5 327.5,249.5 Z"/></g>
<g><path style="opacity:0.916" fill="#ff0083" d="M 367.5,249.5 C 377.506,249.334 387.506,249.5 397.5,250C 405.979,254.462 408.813,261.296 406,270.5C 403.974,274.026 401.141,276.693 397.5,278.5C 402.052,285.61 406.052,292.944 409.5,300.5C 406.15,300.665 402.817,300.498 399.5,300C 395.5,293.333 391.5,286.667 387.5,280C 384.183,279.502 380.85,279.335 377.5,279.5C 377.5,286.5 377.5,293.5 377.5,300.5C 374.167,300.5 370.833,300.5 367.5,300.5C 367.5,283.5 367.5,266.5 367.5,249.5 Z M 377.5,258.5 C 383.176,258.334 388.843,258.501 394.5,259C 397.835,261.679 398.335,264.845 396,268.5C 394.933,269.191 393.766,269.691 392.5,270C 387.511,270.499 382.511,270.666 377.5,270.5C 377.5,266.5 377.5,262.5 377.5,258.5 Z"/></g>
</svg>
